<?xml version="1.0" encoding="utf-8"?>
<svg version="1.1" xmlns="http://www.w3.org/2000/svg" xmlns:xlink="http://www.w3.org/1999/xlink" width="200" height="200"
	 viewBox="0 0 10 10" xml:space="preserve" shape-rendering="crispEdges">
<style type="text/css">
	.s{width: 1px; height: 1px;}
	.c1{fill:hsl(14,100%,50%);}
	.c2{fill:hsl(115,100%,40%);}
	.c3{fill:hsl(248,100%,50%);}
	.c4{fill:hsl(65,100%,50%);}
	.left{height: 2px;}
</style>
<rect x="0" y="0" width="10" height="10" fill="white"/>
<rect x="1" y="7" class="c1 s s"/>
<rect x="8" y="7" class="c1 s"/>
<rect x="8" y="8" class="c1 s"/>
<rect x="7" y="7" class="c1 s"/>
<rect x="6" y="6" class="c2 s"/>
<rect x="4" y="7" class="c1 s"/>
<rect x="3" y="7" class="c1 s"/>
<rect y="5" class="c1 s"/>
<rect x="1" y="8" class="c1 s"/>
<rect x="1" y="4" class="c1 s"/>
<rect x="2" y="7" class="c1 s"/>
<rect x="2" y="8" class="c1 s"/>
<rect x="4" y="4" class="c1 s"/>
<rect x="9" y="5" class="c1 s"/>
<rect y="5" class="c1 s"/>
<rect x="9" y="5" class="c1 s"/>
<rect x="9" y="7" class="c1 s"/>
<rect x="5" y="4" class="c1 s"/>
<rect x="7" y="8" class="c2 s"/>
<rect x="6" y="8" class="c2 s"/>
<rect x="6" y="7" class="c1 s"/>
<rect x="4" y="8" class="c2 s"/>
<rect x="3" y="8" class="c2 s"/>
<rect y="7" class="c1 s"/>
<rect x="3" y="9" class="c1 s"/>
<rect x="6" y="9" class="c1 s"/>
<rect x="7" y="9" class="c1 s"/>
<rect x="1" y="6" class="c1 s"/>
<rect x="4" y="9" class="c1 s"/>
<rect x="2" y="9" class="c1 s"/>
<rect x="2" y="6" class="c1 s"/>
<rect x="3" y="6" class="c1 s"/>
<rect x="8" y="6" class="c1 s"/>
<rect x="7" y="6" class="c1 s"/>
<rect x="5" y="7" class="c2 s"/>
<rect x="6" y="4" class="c1 s"/>

<rect x="9" y="4" class="c4 s"/>
<rect y="4" class="c4 s"/>
<rect x="9" y="6" class="c4 s"/>
<rect y="6" class="c4 s"/>
<rect x="9" y="8" class="c4 s"/>
<rect y="8" class="c4 s"/>
<rect x="9" y="9" class="c4 s"/>
<rect x="1" y="9" class="c4 s"/>
<rect x="8" y="9" class="c4 s"/>
<rect y="9" class="c4 s"/>
<rect x="9" y="3" class="c4 s"/>
<rect y="3" class="c4 s"/>
<rect x="9" y="2" class="c4 s"/>
<rect y="2" class="c4 s"/>
<rect x="9" y="1" class="c4 s"/>
<rect y="1" class="c4 s"/>
<rect x="9" class="c4 s"/>
<rect class="c4 s"/>
<rect x="3" y="1" class="c4 s"/>
<rect x="3" class="c4 s"/>
<rect x="4" y="1" class="c4 s"/>
<rect x="4" class="c4 s"/>
<rect x="5" y="1" class="c4 s"/>
<rect x="5" class="c4 s"/>
<rect x="6" y="1" class="c4 s"/>
<rect x="6" class="c4 s"/>
<rect x="7" class="c4 s"/>
<rect x="2" class="c4 s"/>
<rect x="1" y="5" class="c1 s"/>
<rect x="4" y="5" class="c1 s"/>
<rect x="5" y="5" class="c1 s"/>
<rect x="2" y="5" class="c3 s">
	<animate attributeName="x" values="2;2;3;3;2;2" keyTimes="0;.5;.53;.67;.7;1" dur="9s" repeatCount="indefinite"/>
	<animate attributeName="y" values="5;5;4;4;5;5" keyTimes="0;.5;.53;.67;.7;1" dur="25s" repeatCount="indefinite"/>
</rect>
<rect x="7" y="5" class="c3 s">
	<animate attributeName="x" values="7;7;8;8;7;7" keyTimes="0;.5;.53;.67;.7;1" dur="9s" repeatCount="indefinite"/>
	<animate attributeName="y" values="5;5;4;4;5;5" keyTimes="0;.5;.53;.67;.7;1" dur="25s" repeatCount="indefinite"/>
</rect>
<rect x="6" y="5" class="c1 s"/>
<rect x="5" y="8" class="c1 s"/>
<rect x="5" y="9" class="c1 s"/>
<rect x="5" y="6" class="c2 s"/>
<rect x="4" y="6" class="c2 s"/>
<rect x="1" class="c1 s"/>
<rect x="8" class="c1 s"/>
<rect x="1" y="2" class="c1 s"/>
<rect x="2" y="2" class="c1 s"/>
<rect x="3" y="2" class="c1 s"/>
<rect x="4" y="2" class="c1 s"/>
<rect x="8" y="2" class="c1 s"/>
<rect x="7" y="2" class="c1 s"/>
<rect x="6" y="2" class="c1 s"/>
<rect x="5" y="2" class="c1 s"/>
<rect x="1" y="3" class="c1 s"/>
<rect x="3" y="3" class="c1 s"/>
<rect x="4" y="3" class="c1 s"/>
<rect x="8" y="3" class="c1 s"/>
<rect x="2" y="3" class="c1 s"/>
<rect x="7" y="3" class="c1 s"/>
<rect x="6" y="3" class="c1 s"/>
<rect x="5" y="3" class="c1 s"/>
<rect x="1" y="1" class="c1 s"/>
<rect x="2" y="1" class="c1 s"/>
<rect x="8" y="1" class="c1 s"/>
<rect x="7" y="1" class="c1 s"/>
<rect x="2" y="4" class="c1 left" width="2" height="2">
	<animate attributeName="height" values="0;2;0;0" keyTimes="0;0.01;0.03;1" dur="4s" repeatCount="indefinite"/>
</rect>
<rect x="7" y="4" class="c1 right" width="2" height="2">
	<animate attributeName="height" values="0;2;0;0" keyTimes="0;0.01;0.03;1" dur="4s" repeatCount="indefinite"/>
</rect>
</svg>
