<?xml version="1.0" encoding="utf-8"?>
<svg version="1.1" id="Layer_1" xmlns="http://www.w3.org/2000/svg" xmlns:xlink="http://www.w3.org/1999/xlink" x="0px" y="0px" width="420" height="420" class="container"
	 viewBox="0 0 420 420" style="enable-background:new 0 0 420 420;" xml:space="preserve">
<style type="text/css">
	.container{font-size:28px; font-family: monospace, monospace; font-weight: 500; letter-spacing: 2px;}
	.whitetext{fill:#ffffff;}
	.blacktext{fill:#000000;}
	.pinktext{fill:#FA0F95;}
	.whiteheart{fill:#ffffff; stroke:#000000; stroke-width:6px;}
	.pink{fill:#FFC9DF;}
	.blue{fill:#92D0F0;}
	.orange{fill:#FFCC99;}
	.green{fill:#A4FFCA;}
	.purple{fill:#DAB5FF;}
	.yellow{fill:#FFF6AE;}
	.lightpink{fill:#FFDBDB;}
</style>


<rect class="lightpink" width="420" height="420"/>

<g transform="translate(98,96) rotate(14)">
	<path class="whiteheart" d="M79.2-43C71.2-78.4,30.8-84.9,5-60.9c-2.5,2.3-6.4,2.1-8.8-0.3c-25-25.9-75.1-15-76.7,28.2C-82.6,22.3-14,75.2,1.5,75.1
	C17.3,75.1,91.3,10.7,79.2-43z">

	</path>
	<text text-anchor="middle">
		<tspan x="0" y="-10" class="blacktext">0x7A43</tspan>
	</text>

</g>

<g transform="translate(236,220) rotate(-10)">
	<path class="whiteheart" d="M79.2-43C71.2-78.4,30.8-84.9,5-60.9c-2.5,2.3-6.4,2.1-8.8-0.3c-25-25.9-75.1-15-76.7,28.2C-82.6,22.3-14,75.2,1.5,75.1
	C17.3,75.1,91.3,10.7,79.2-43z"/>
	<text text-anchor="middle">
		<tspan x="0" y="-10" class="blacktext">0xCC81</tspan>
	</text>
</g>

<g transform="translate(340,75) rotate(-16)">
	<path class="blackheart" d="M79.2-43C71.2-78.4,30.8-84.9,5-60.9c-2.5,2.3-6.4,2.1-8.8-0.3c-25-25.9-75.1-15-76.7,28.2C-82.6,22.3-14,75.2,1.5,75.1
	C17.3,75.1,91.3,10.7,79.2-43z"/>
	<text text-anchor="middle">
		<tspan x="10" y="-15" class="whitetext">2THE</tspan>
		<tspan x="0" y="20" class="whitetext">MOON</tspan>
	</text>
</g>

<g transform="translate(99,338) rotate(-5)">
	<path class="blackheart" d="M79.2-43C71.2-78.4,30.8-84.9,5-60.9c-2.5,2.3-6.4,2.1-8.8-0.3c-25-25.9-75.1-15-76.7,28.2C-82.6,22.3-14,75.2,1.5,75.1
	C17.3,75.1,91.3,10.7,79.2-43z"/>
	<text text-anchor="middle">
		<tspan x="10" y="-15" class="whitetext">BULLISH</tspan>
		<tspan x="0" y="20" class="whitetext">4LOVE</tspan>
	</text>
</g>

<g transform="translate(340,370) rotate(22)">
	<path class="blackheart" d="M79.2-43C71.2-78.4,30.8-84.9,5-60.9c-2.5,2.3-6.4,2.1-8.8-0.3c-25-25.9-75.1-15-76.7,28.2C-82.6,22.3-14,75.2,1.5,75.1
	C17.3,75.1,91.3,10.7,79.2-43z"/>
	<text text-anchor="middle">
		<tspan x="0" y="-5" class="whitetext">0x0x</tspan>
	</text>
</g>

<g transform="translate(-40,210) rotate(27)">
	<path class="blackheart" d="M79.2-43C71.2-78.4,30.8-84.9,5-60.9c-2.5,2.3-6.4,2.1-8.8-0.3c-25-25.9-75.1-15-76.7,28.2C-82.6,22.3-14,75.2,1.5,75.1
	C17.3,75.1,91.3,10.7,79.2-43z"/>
</g>

<g transform="translate(460,210) rotate(-22)">
	<path class="blackheart" d="M79.2-43C71.2-78.4,30.8-84.9,5-60.9c-2.5,2.3-6.4,2.1-8.8-0.3c-25-25.9-75.1-15-76.7,28.2C-82.6,22.3-14,75.2,1.5,75.1
	C17.3,75.1,91.3,10.7,79.2-43z"/>
</g>

</svg>
